<mxfile host="app.diagrams.net" agent="Mozilla/5.0 (X11; Linux x86_64) AppleWebKit/537.36 (KHTML, like Gecko) Chrome/132.0.0.0 Safari/537.36" version="26.2.9">
  <diagram id="C5RBs43oDa-KdzZeNtuy" name="Page-1">
    <mxGraphModel dx="1601" dy="825" grid="1" gridSize="10" guides="1" tooltips="1" connect="1" arrows="1" fold="1" page="1" pageScale="1" pageWidth="1654" pageHeight="1169" math="0" shadow="0">
      <root>
        <mxCell id="WIyWlLk6GJQsqaUBKTNV-0" />
        <mxCell id="WIyWlLk6GJQsqaUBKTNV-1" parent="WIyWlLk6GJQsqaUBKTNV-0" />
        <mxCell id="C_lafcNAbofjiIhg2bWq-4" value="" style="endArrow=classic;html=1;rounded=0;entryX=0.59;entryY=-0.05;entryDx=0;entryDy=0;entryPerimeter=0;" parent="WIyWlLk6GJQsqaUBKTNV-1" target="C_lafcNAbofjiIhg2bWq-3" edge="1">
          <mxGeometry width="50" height="50" relative="1" as="geometry">
            <mxPoint x="880" y="130" as="sourcePoint" />
            <mxPoint x="540" y="200" as="targetPoint" />
            <Array as="points">
              <mxPoint x="880" y="200" />
              <mxPoint x="160" y="200" />
            </Array>
          </mxGeometry>
        </mxCell>
        <mxCell id="FZe_mnvvT1CyTuaeCMHh-19" value="" style="endArrow=classic;html=1;rounded=0;entryX=0.5;entryY=0;entryDx=0;entryDy=0;" parent="WIyWlLk6GJQsqaUBKTNV-1" target="FZe_mnvvT1CyTuaeCMHh-3" edge="1">
          <mxGeometry width="50" height="50" relative="1" as="geometry">
            <mxPoint x="437" y="200" as="sourcePoint" />
            <mxPoint x="930" y="150" as="targetPoint" />
            <Array as="points" />
          </mxGeometry>
        </mxCell>
        <mxCell id="FZe_mnvvT1CyTuaeCMHh-20" value="" style="endArrow=classic;html=1;rounded=0;entryX=0.5;entryY=0;entryDx=0;entryDy=0;" parent="WIyWlLk6GJQsqaUBKTNV-1" target="FZe_mnvvT1CyTuaeCMHh-21" edge="1">
          <mxGeometry width="50" height="50" relative="1" as="geometry">
            <mxPoint x="880" y="200" as="sourcePoint" />
            <mxPoint x="1480" y="280" as="targetPoint" />
            <Array as="points">
              <mxPoint x="1520" y="200" />
              <mxPoint x="706" y="200" />
            </Array>
          </mxGeometry>
        </mxCell>
        <mxCell id="FZe_mnvvT1CyTuaeCMHh-30" value="Inicio" style="strokeWidth=2;html=1;shape=mxgraph.flowchart.start_1;whiteSpace=wrap;" parent="WIyWlLk6GJQsqaUBKTNV-1" vertex="1">
          <mxGeometry x="449" y="70" width="860" height="60" as="geometry" />
        </mxCell>
        <mxCell id="u93-jMKzz6fnFQhCB3kw-0" value="" style="group" parent="WIyWlLk6GJQsqaUBKTNV-1" vertex="1" connectable="0">
          <mxGeometry x="10" y="320" width="260" height="530" as="geometry" />
        </mxCell>
        <mxCell id="C_lafcNAbofjiIhg2bWq-3" value="Temperatura" style="shape=parallelogram;html=1;strokeWidth=2;perimeter=parallelogramPerimeter;whiteSpace=wrap;rounded=1;arcSize=12;size=0.23;" parent="u93-jMKzz6fnFQhCB3kw-0" vertex="1">
          <mxGeometry x="85.5263157894737" y="52.13114754098359" width="109.47368421052633" height="52.13114754098359" as="geometry" />
        </mxCell>
        <mxCell id="C_lafcNAbofjiIhg2bWq-6" value="t&lt;font style=&quot;font-size: 10px;&quot;&gt;emperatura &amp;gt; 28º&lt;/font&gt;" style="strokeWidth=2;html=1;shape=mxgraph.flowchart.decision;whiteSpace=wrap;" parent="u93-jMKzz6fnFQhCB3kw-0" vertex="1">
          <mxGeometry x="88.94736842105263" y="165.08196721311475" width="88.94736842105263" height="112.95081967213112" as="geometry" />
        </mxCell>
        <mxCell id="C_lafcNAbofjiIhg2bWq-7" value="" style="endArrow=classic;html=1;rounded=0;entryX=0.5;entryY=0;entryDx=0;entryDy=0;entryPerimeter=0;exitX=0.469;exitY=1;exitDx=0;exitDy=0;exitPerimeter=0;" parent="u93-jMKzz6fnFQhCB3kw-0" source="C_lafcNAbofjiIhg2bWq-3" target="C_lafcNAbofjiIhg2bWq-6" edge="1">
          <mxGeometry width="50" height="50" relative="1" as="geometry">
            <mxPoint x="321.578947368421" as="sourcePoint" />
            <mxPoint x="355.7894736842105" y="-43.44262295081967" as="targetPoint" />
          </mxGeometry>
        </mxCell>
        <mxCell id="C_lafcNAbofjiIhg2bWq-8" value="" style="endArrow=classic;html=1;rounded=0;exitX=1;exitY=0.5;exitDx=0;exitDy=0;exitPerimeter=0;" parent="u93-jMKzz6fnFQhCB3kw-0" source="C_lafcNAbofjiIhg2bWq-6" edge="1">
          <mxGeometry width="50" height="50" relative="1" as="geometry">
            <mxPoint x="321.578947368421" y="312.7868852459016" as="sourcePoint" />
            <mxPoint x="205.26315789473685" y="295.40983606557376" as="targetPoint" />
            <Array as="points">
              <mxPoint x="205.26315789473685" y="221.55737704918027" />
            </Array>
          </mxGeometry>
        </mxCell>
        <mxCell id="C_lafcNAbofjiIhg2bWq-9" value="Si" style="text;html=1;align=center;verticalAlign=middle;resizable=0;points=[];autosize=1;strokeColor=none;fillColor=none;" parent="u93-jMKzz6fnFQhCB3kw-0" vertex="1">
          <mxGeometry x="184.73684210526315" y="198.09836065573768" width="30" height="30" as="geometry" />
        </mxCell>
        <mxCell id="C_lafcNAbofjiIhg2bWq-10" value="Non" style="text;html=1;align=center;verticalAlign=middle;resizable=0;points=[];autosize=1;strokeColor=none;fillColor=none;" parent="u93-jMKzz6fnFQhCB3kw-0" vertex="1">
          <mxGeometry x="38.946842105263165" y="198.09836065573768" width="50" height="30" as="geometry" />
        </mxCell>
        <mxCell id="C_lafcNAbofjiIhg2bWq-12" value="O LED vermello se acende" style="rounded=1;whiteSpace=wrap;html=1;absoluteArcSize=1;arcSize=14;strokeWidth=2;" parent="u93-jMKzz6fnFQhCB3kw-0" vertex="1">
          <mxGeometry x="171.0526315789474" y="295.40983606557376" width="68.42105263157895" height="86.88524590163934" as="geometry" />
        </mxCell>
        <mxCell id="C_lafcNAbofjiIhg2bWq-13" value="se activa el relé" style="rounded=1;whiteSpace=wrap;html=1;absoluteArcSize=1;arcSize=14;strokeWidth=2;" parent="u93-jMKzz6fnFQhCB3kw-0" vertex="1">
          <mxGeometry x="171.0526315789474" y="425.73770491803276" width="68.42105263157895" height="86.88524590163934" as="geometry" />
        </mxCell>
        <mxCell id="C_lafcNAbofjiIhg2bWq-14" value="" style="endArrow=classic;html=1;rounded=0;" parent="u93-jMKzz6fnFQhCB3kw-0" edge="1">
          <mxGeometry width="50" height="50" relative="1" as="geometry">
            <mxPoint x="205.26315789473685" y="390.983606557377" as="sourcePoint" />
            <mxPoint x="205.26315789473685" y="425.73770491803276" as="targetPoint" />
            <Array as="points">
              <mxPoint x="205.26315789473685" y="382.2950819672131" />
            </Array>
          </mxGeometry>
        </mxCell>
        <mxCell id="C_lafcNAbofjiIhg2bWq-15" value="" style="endArrow=classic;html=1;rounded=0;exitX=0.5;exitY=1;exitDx=0;exitDy=0;" parent="u93-jMKzz6fnFQhCB3kw-0" source="C_lafcNAbofjiIhg2bWq-13" edge="1">
          <mxGeometry width="50" height="50" relative="1" as="geometry">
            <mxPoint x="205.26315789473685" y="564.7540983606557" as="sourcePoint" />
            <mxPoint x="150.52631578947367" as="targetPoint" />
            <Array as="points">
              <mxPoint x="205.26315789473685" y="530" />
              <mxPoint x="232.6315789473684" y="530" />
              <mxPoint x="260" y="530" />
              <mxPoint x="260" />
            </Array>
          </mxGeometry>
        </mxCell>
        <mxCell id="C_lafcNAbofjiIhg2bWq-16" value="" style="endArrow=classic;html=1;rounded=0;exitX=0;exitY=0.5;exitDx=0;exitDy=0;exitPerimeter=0;entryX=0.5;entryY=0;entryDx=0;entryDy=0;" parent="u93-jMKzz6fnFQhCB3kw-0" source="C_lafcNAbofjiIhg2bWq-6" target="C_lafcNAbofjiIhg2bWq-20" edge="1">
          <mxGeometry width="50" height="50" relative="1" as="geometry">
            <mxPoint x="47.89473684210526" y="278.03278688524586" as="sourcePoint" />
            <mxPoint x="54.736842105263165" y="251.96721311475412" as="targetPoint" />
            <Array as="points">
              <mxPoint x="54.736842105263165" y="221.55737704918027" />
            </Array>
          </mxGeometry>
        </mxCell>
        <mxCell id="C_lafcNAbofjiIhg2bWq-20" value="Non encender o LED nin o relé" style="rounded=1;whiteSpace=wrap;html=1;absoluteArcSize=1;arcSize=14;strokeWidth=2;" parent="u93-jMKzz6fnFQhCB3kw-0" vertex="1">
          <mxGeometry x="20.526315789473685" y="295.40983606557376" width="68.42105263157895" height="86.88524590163934" as="geometry" />
        </mxCell>
        <mxCell id="C_lafcNAbofjiIhg2bWq-21" value="" style="endArrow=classic;html=1;rounded=0;entryX=0;entryY=0.5;entryDx=0;entryDy=0;exitX=0.5;exitY=1;exitDx=0;exitDy=0;" parent="u93-jMKzz6fnFQhCB3kw-0" source="FZe_mnvvT1CyTuaeCMHh-0" target="C_lafcNAbofjiIhg2bWq-3" edge="1">
          <mxGeometry width="50" height="50" relative="1" as="geometry">
            <mxPoint x="54.736842105263165" y="399.67213114754094" as="sourcePoint" />
            <mxPoint x="369.4736842105263" y="338.85245901639337" as="targetPoint" />
            <Array as="points">
              <mxPoint x="54.736842105263165" y="521.311475409836" />
              <mxPoint y="521.311475409836" />
              <mxPoint y="399.67213114754094" />
              <mxPoint y="234.59016393442622" />
              <mxPoint y="78.1967213114754" />
            </Array>
          </mxGeometry>
        </mxCell>
        <mxCell id="FZe_mnvvT1CyTuaeCMHh-0" value="&lt;font style=&quot;vertical-align: inherit;&quot;&gt;&lt;font style=&quot;vertical-align: inherit;&quot;&gt;No encender o relé&lt;/font&gt;&lt;/font&gt;" style="rounded=1;whiteSpace=wrap;html=1;absoluteArcSize=1;arcSize=14;strokeWidth=2;" parent="u93-jMKzz6fnFQhCB3kw-0" vertex="1">
          <mxGeometry x="20.526315789473685" y="417.0491803278687" width="68.42105263157895" height="86.88524590163934" as="geometry" />
        </mxCell>
        <mxCell id="FZe_mnvvT1CyTuaeCMHh-1" value="" style="endArrow=classic;html=1;rounded=0;entryX=0.5;entryY=0;entryDx=0;entryDy=0;exitX=0.5;exitY=1;exitDx=0;exitDy=0;" parent="u93-jMKzz6fnFQhCB3kw-0" source="C_lafcNAbofjiIhg2bWq-20" target="FZe_mnvvT1CyTuaeCMHh-0" edge="1">
          <mxGeometry width="50" height="50" relative="1" as="geometry">
            <mxPoint x="51.31578947368421" y="382.2950819672131" as="sourcePoint" />
            <mxPoint x="85.5263157894737" y="338.85245901639337" as="targetPoint" />
          </mxGeometry>
        </mxCell>
        <mxCell id="u93-jMKzz6fnFQhCB3kw-1" value="" style="group" parent="WIyWlLk6GJQsqaUBKTNV-1" vertex="1" connectable="0">
          <mxGeometry x="320" y="320" width="230" height="310" as="geometry" />
        </mxCell>
        <mxCell id="FZe_mnvvT1CyTuaeCMHh-3" value="&lt;font style=&quot;vertical-align: inherit;&quot;&gt;&lt;font style=&quot;vertical-align: inherit;&quot;&gt;Sensor de luz&lt;/font&gt;&lt;/font&gt;" style="shape=parallelogram;html=1;strokeWidth=2;perimeter=parallelogramPerimeter;whiteSpace=wrap;rounded=1;arcSize=12;size=0.23;" parent="u93-jMKzz6fnFQhCB3kw-1" vertex="1">
          <mxGeometry x="69" y="36.470588235294116" width="96.3125" height="54.70588235294117" as="geometry" />
        </mxCell>
        <mxCell id="FZe_mnvvT1CyTuaeCMHh-8" style="edgeStyle=orthogonalEdgeStyle;rounded=0;orthogonalLoop=1;jettySize=auto;html=1;entryX=0.5;entryY=0;entryDx=0;entryDy=0;" parent="u93-jMKzz6fnFQhCB3kw-1" source="FZe_mnvvT1CyTuaeCMHh-6" target="FZe_mnvvT1CyTuaeCMHh-10" edge="1">
          <mxGeometry relative="1" as="geometry">
            <mxPoint x="186.875" y="237.05882352941174" as="targetPoint" />
            <Array as="points">
              <mxPoint x="179.6875" y="182.35294117647058" />
            </Array>
          </mxGeometry>
        </mxCell>
        <mxCell id="FZe_mnvvT1CyTuaeCMHh-9" style="edgeStyle=orthogonalEdgeStyle;rounded=0;orthogonalLoop=1;jettySize=auto;html=1;" parent="u93-jMKzz6fnFQhCB3kw-1" source="FZe_mnvvT1CyTuaeCMHh-6" edge="1">
          <mxGeometry relative="1" as="geometry">
            <mxPoint x="57.5" y="237.05882352941174" as="targetPoint" />
          </mxGeometry>
        </mxCell>
        <mxCell id="FZe_mnvvT1CyTuaeCMHh-6" value="&lt;font style=&quot;vertical-align: inherit;&quot;&gt;&lt;font style=&quot;vertical-align: inherit;&quot;&gt;Luz&amp;lt;700&lt;/font&gt;&lt;/font&gt;" style="strokeWidth=2;html=1;shape=mxgraph.flowchart.decision;whiteSpace=wrap;" parent="u93-jMKzz6fnFQhCB3kw-1" vertex="1">
          <mxGeometry x="81.21875" y="136.76470588235293" width="71.875" height="91.17647058823529" as="geometry" />
        </mxCell>
        <mxCell id="FZe_mnvvT1CyTuaeCMHh-7" style="edgeStyle=orthogonalEdgeStyle;rounded=0;orthogonalLoop=1;jettySize=auto;html=1;entryX=0.5;entryY=0;entryDx=0;entryDy=0;entryPerimeter=0;" parent="u93-jMKzz6fnFQhCB3kw-1" source="FZe_mnvvT1CyTuaeCMHh-3" target="FZe_mnvvT1CyTuaeCMHh-6" edge="1">
          <mxGeometry relative="1" as="geometry" />
        </mxCell>
        <mxCell id="FZe_mnvvT1CyTuaeCMHh-16" style="edgeStyle=orthogonalEdgeStyle;rounded=0;orthogonalLoop=1;jettySize=auto;html=1;" parent="u93-jMKzz6fnFQhCB3kw-1" source="FZe_mnvvT1CyTuaeCMHh-10" edge="1">
          <mxGeometry relative="1" as="geometry">
            <mxPoint x="117.875" as="targetPoint" />
            <Array as="points">
              <mxPoint x="179.6875" y="310" />
              <mxPoint x="230" y="310" />
              <mxPoint x="230" />
            </Array>
          </mxGeometry>
        </mxCell>
        <mxCell id="FZe_mnvvT1CyTuaeCMHh-10" value="&lt;font style=&quot;vertical-align: inherit;&quot;&gt;&lt;font style=&quot;vertical-align: inherit;&quot;&gt;Apagar LED&lt;/font&gt;&lt;/font&gt;" style="rounded=1;whiteSpace=wrap;html=1;absoluteArcSize=1;arcSize=14;strokeWidth=2;" parent="u93-jMKzz6fnFQhCB3kw-1" vertex="1">
          <mxGeometry x="140.875" y="237.05882352941174" width="76.90625" height="54.70588235294117" as="geometry" />
        </mxCell>
        <mxCell id="FZe_mnvvT1CyTuaeCMHh-18" style="edgeStyle=orthogonalEdgeStyle;rounded=0;orthogonalLoop=1;jettySize=auto;html=1;" parent="u93-jMKzz6fnFQhCB3kw-1" source="FZe_mnvvT1CyTuaeCMHh-11" edge="1">
          <mxGeometry relative="1" as="geometry">
            <mxPoint x="117.875" as="targetPoint" />
            <Array as="points">
              <mxPoint x="57.5" y="310" />
              <mxPoint y="310" />
              <mxPoint />
            </Array>
          </mxGeometry>
        </mxCell>
        <mxCell id="FZe_mnvvT1CyTuaeCMHh-11" value="&lt;font style=&quot;vertical-align: inherit;&quot;&gt;&lt;font style=&quot;vertical-align: inherit;&quot;&gt;Acender LED&lt;/font&gt;&lt;/font&gt;" style="rounded=1;whiteSpace=wrap;html=1;absoluteArcSize=1;arcSize=14;strokeWidth=2;" parent="u93-jMKzz6fnFQhCB3kw-1" vertex="1">
          <mxGeometry x="21.5625" y="237.05882352941174" width="71.875" height="54.70588235294117" as="geometry" />
        </mxCell>
        <mxCell id="FZe_mnvvT1CyTuaeCMHh-12" value="&lt;font style=&quot;vertical-align: inherit;&quot;&gt;&lt;font style=&quot;vertical-align: inherit;&quot;&gt;Non&lt;/font&gt;&lt;/font&gt;" style="text;html=1;align=center;verticalAlign=middle;resizable=0;points=[];autosize=1;strokeColor=none;fillColor=none;" parent="u93-jMKzz6fnFQhCB3kw-1" vertex="1">
          <mxGeometry x="143.75" y="162.2941176470588" width="50" height="30" as="geometry" />
        </mxCell>
        <mxCell id="FZe_mnvvT1CyTuaeCMHh-13" value="&lt;font style=&quot;vertical-align: inherit;&quot;&gt;&lt;font style=&quot;vertical-align: inherit;&quot;&gt;Si&lt;/font&gt;&lt;/font&gt;" style="text;html=1;align=center;verticalAlign=middle;resizable=0;points=[];autosize=1;strokeColor=none;fillColor=none;" parent="u93-jMKzz6fnFQhCB3kw-1" vertex="1">
          <mxGeometry x="51.22375" y="162.2941176470588" width="30" height="30" as="geometry" />
        </mxCell>
        <mxCell id="u93-jMKzz6fnFQhCB3kw-2" value="" style="group" parent="WIyWlLk6GJQsqaUBKTNV-1" vertex="1" connectable="0">
          <mxGeometry x="600" y="320" width="240" height="320" as="geometry" />
        </mxCell>
        <mxCell id="FZe_mnvvT1CyTuaeCMHh-21" value="Botón A" style="shape=parallelogram;html=1;strokeWidth=2;perimeter=parallelogramPerimeter;whiteSpace=wrap;rounded=1;arcSize=12;size=0.23;" parent="u93-jMKzz6fnFQhCB3kw-2" vertex="1">
          <mxGeometry x="63.529411764705884" y="15.238095238095237" width="84.70588235294119" height="45.71428571428571" as="geometry" />
        </mxCell>
        <mxCell id="FZe_mnvvT1CyTuaeCMHh-28" style="edgeStyle=orthogonalEdgeStyle;rounded=0;orthogonalLoop=1;jettySize=auto;html=1;" parent="u93-jMKzz6fnFQhCB3kw-2" source="FZe_mnvvT1CyTuaeCMHh-23" target="FZe_mnvvT1CyTuaeCMHh-24" edge="1">
          <mxGeometry relative="1" as="geometry" />
        </mxCell>
        <mxCell id="FZe_mnvvT1CyTuaeCMHh-23" value="Acender o LED 5 segundos" style="rounded=1;whiteSpace=wrap;html=1;absoluteArcSize=1;arcSize=14;strokeWidth=2;" parent="u93-jMKzz6fnFQhCB3kw-2" vertex="1">
          <mxGeometry x="10.588235294117649" y="198.85714285714283" width="84.70588235294119" height="32" as="geometry" />
        </mxCell>
        <mxCell id="Dsi8gf4IHQBdh5bA3h0h-10" style="edgeStyle=orthogonalEdgeStyle;rounded=0;orthogonalLoop=1;jettySize=auto;html=1;exitX=0.5;exitY=1;exitDx=0;exitDy=0;" parent="u93-jMKzz6fnFQhCB3kw-2" source="FZe_mnvvT1CyTuaeCMHh-24" edge="1">
          <mxGeometry relative="1" as="geometry">
            <mxPoint x="105.88235294117648" as="targetPoint" />
            <Array as="points">
              <mxPoint x="52.94117647058824" y="312.38095238095235" />
              <mxPoint y="312.38095238095235" />
              <mxPoint />
              <mxPoint x="73.41176470588236" />
            </Array>
          </mxGeometry>
        </mxCell>
        <mxCell id="FZe_mnvvT1CyTuaeCMHh-24" value="Emite o son da microbit ringtone" style="rounded=1;whiteSpace=wrap;html=1;absoluteArcSize=1;arcSize=14;strokeWidth=2;" parent="u93-jMKzz6fnFQhCB3kw-2" vertex="1">
          <mxGeometry x="7.058823529411765" y="258.2857142857143" width="91.76470588235294" height="31.238095238095237" as="geometry" />
        </mxCell>
        <mxCell id="Dsi8gf4IHQBdh5bA3h0h-1" style="edgeStyle=orthogonalEdgeStyle;rounded=0;orthogonalLoop=1;jettySize=auto;html=1;" parent="u93-jMKzz6fnFQhCB3kw-2" source="Dsi8gf4IHQBdh5bA3h0h-0" edge="1">
          <mxGeometry relative="1" as="geometry">
            <mxPoint x="176.47058823529412" y="198.09523809523807" as="targetPoint" />
          </mxGeometry>
        </mxCell>
        <mxCell id="Dsi8gf4IHQBdh5bA3h0h-5" style="edgeStyle=orthogonalEdgeStyle;rounded=0;orthogonalLoop=1;jettySize=auto;html=1;" parent="u93-jMKzz6fnFQhCB3kw-2" source="Dsi8gf4IHQBdh5bA3h0h-0" edge="1">
          <mxGeometry relative="1" as="geometry">
            <mxPoint x="42.352941176470594" y="198.09523809523807" as="targetPoint" />
          </mxGeometry>
        </mxCell>
        <mxCell id="Dsi8gf4IHQBdh5bA3h0h-0" value="Si se pulsa botón A" style="strokeWidth=2;html=1;shape=mxgraph.flowchart.decision;whiteSpace=wrap;" parent="u93-jMKzz6fnFQhCB3kw-2" vertex="1">
          <mxGeometry x="63.529411764705884" y="89.9047619047619" width="84.70588235294119" height="76.19047619047619" as="geometry" />
        </mxCell>
        <mxCell id="Dsi8gf4IHQBdh5bA3h0h-3" value="Si" style="text;html=1;align=center;verticalAlign=middle;resizable=0;points=[];autosize=1;strokeColor=none;fillColor=none;" parent="u93-jMKzz6fnFQhCB3kw-2" vertex="1">
          <mxGeometry x="37.9429411764706" y="100.00190476190475" width="30" height="30" as="geometry" />
        </mxCell>
        <mxCell id="Dsi8gf4IHQBdh5bA3h0h-4" value="Non" style="text;html=1;align=center;verticalAlign=middle;resizable=0;points=[];autosize=1;strokeColor=none;fillColor=none;" parent="u93-jMKzz6fnFQhCB3kw-2" vertex="1">
          <mxGeometry x="137.6464705882353" y="100.00190476190475" width="50" height="30" as="geometry" />
        </mxCell>
        <mxCell id="Dsi8gf4IHQBdh5bA3h0h-8" style="edgeStyle=orthogonalEdgeStyle;rounded=0;orthogonalLoop=1;jettySize=auto;html=1;entryX=0.5;entryY=0;entryDx=0;entryDy=0;" parent="u93-jMKzz6fnFQhCB3kw-2" source="Dsi8gf4IHQBdh5bA3h0h-6" target="Dsi8gf4IHQBdh5bA3h0h-7" edge="1">
          <mxGeometry relative="1" as="geometry" />
        </mxCell>
        <mxCell id="Dsi8gf4IHQBdh5bA3h0h-6" value="Non acender o LED&amp;nbsp;" style="rounded=1;whiteSpace=wrap;html=1;absoluteArcSize=1;arcSize=14;strokeWidth=2;" parent="u93-jMKzz6fnFQhCB3kw-2" vertex="1">
          <mxGeometry x="137.64705882352942" y="198.85714285714283" width="77.64705882352942" height="29.71428571428571" as="geometry" />
        </mxCell>
        <mxCell id="Dsi8gf4IHQBdh5bA3h0h-7" value="Non emitir ningún sonido" style="rounded=1;whiteSpace=wrap;html=1;absoluteArcSize=1;arcSize=14;strokeWidth=2;" parent="u93-jMKzz6fnFQhCB3kw-2" vertex="1">
          <mxGeometry x="134.11764705882354" y="258.2857142857143" width="84.70588235294119" height="31.238095238095237" as="geometry" />
        </mxCell>
        <mxCell id="Dsi8gf4IHQBdh5bA3h0h-9" style="edgeStyle=orthogonalEdgeStyle;rounded=0;orthogonalLoop=1;jettySize=auto;html=1;entryX=0.5;entryY=0;entryDx=0;entryDy=0;entryPerimeter=0;" parent="u93-jMKzz6fnFQhCB3kw-2" source="FZe_mnvvT1CyTuaeCMHh-21" target="Dsi8gf4IHQBdh5bA3h0h-0" edge="1">
          <mxGeometry relative="1" as="geometry" />
        </mxCell>
        <mxCell id="Dsi8gf4IHQBdh5bA3h0h-11" value="" style="endArrow=classic;html=1;rounded=0;entryX=1;entryY=0.5;entryDx=0;entryDy=0;" parent="u93-jMKzz6fnFQhCB3kw-2" target="FZe_mnvvT1CyTuaeCMHh-21" edge="1">
          <mxGeometry width="50" height="50" relative="1" as="geometry">
            <mxPoint x="176.47058823529412" y="289.5238095238095" as="sourcePoint" />
            <mxPoint x="211.76470588235296" y="251.42857142857142" as="targetPoint" />
            <Array as="points">
              <mxPoint x="176.47058823529412" y="320" />
              <mxPoint x="240.00000000000003" y="320" />
              <mxPoint x="240.00000000000003" y="198.09523809523807" />
              <mxPoint x="240.00000000000003" y="38.095238095238095" />
            </Array>
          </mxGeometry>
        </mxCell>
        <mxCell id="W4NPOgVsrDa2YRoiuGQa-29" value="1 bloque&amp;nbsp;" style="text;html=1;align=center;verticalAlign=middle;resizable=0;points=[];autosize=1;strokeColor=none;fillColor=none;" parent="WIyWlLk6GJQsqaUBKTNV-1" vertex="1">
          <mxGeometry x="1325" y="88" width="70" height="30" as="geometry" />
        </mxCell>
        <mxCell id="As3NNHCOp14CXFXTtC2F-1" value="" style="endArrow=classic;html=1;rounded=0;entryX=0.5;entryY=0;entryDx=0;entryDy=0;" edge="1" parent="WIyWlLk6GJQsqaUBKTNV-1" target="As3NNHCOp14CXFXTtC2F-2">
          <mxGeometry width="50" height="50" relative="1" as="geometry">
            <mxPoint x="975" y="200" as="sourcePoint" />
            <mxPoint x="1040" y="250" as="targetPoint" />
          </mxGeometry>
        </mxCell>
        <mxCell id="As3NNHCOp14CXFXTtC2F-33" value="" style="group" vertex="1" connectable="0" parent="WIyWlLk6GJQsqaUBKTNV-1">
          <mxGeometry x="900" y="270" width="250" height="490" as="geometry" />
        </mxCell>
        <mxCell id="As3NNHCOp14CXFXTtC2F-2" value="&lt;font style=&quot;vertical-align: inherit;&quot;&gt;&lt;font style=&quot;vertical-align: inherit;&quot;&gt;P=0&lt;/font&gt;&lt;/font&gt;" style="rounded=1;whiteSpace=wrap;html=1;absoluteArcSize=1;arcSize=14;strokeWidth=2;" vertex="1" parent="As3NNHCOp14CXFXTtC2F-33">
          <mxGeometry x="20" width="110" height="34" as="geometry" />
        </mxCell>
        <mxCell id="As3NNHCOp14CXFXTtC2F-11" style="edgeStyle=orthogonalEdgeStyle;rounded=0;orthogonalLoop=1;jettySize=auto;html=1;entryX=0.5;entryY=0;entryDx=0;entryDy=0;" edge="1" parent="As3NNHCOp14CXFXTtC2F-33" source="As3NNHCOp14CXFXTtC2F-3" target="As3NNHCOp14CXFXTtC2F-6">
          <mxGeometry relative="1" as="geometry" />
        </mxCell>
        <mxCell id="As3NNHCOp14CXFXTtC2F-3" value="&lt;font style=&quot;vertical-align: inherit;&quot;&gt;&lt;font style=&quot;vertical-align: inherit;&quot;&gt;servo 0º&lt;/font&gt;&lt;/font&gt;" style="rounded=1;whiteSpace=wrap;html=1;absoluteArcSize=1;arcSize=14;strokeWidth=2;" vertex="1" parent="As3NNHCOp14CXFXTtC2F-33">
          <mxGeometry x="20" y="60" width="110" height="29" as="geometry" />
        </mxCell>
        <mxCell id="As3NNHCOp14CXFXTtC2F-4" value="" style="endArrow=classic;html=1;rounded=0;exitX=0.5;exitY=1;exitDx=0;exitDy=0;entryX=0.5;entryY=0;entryDx=0;entryDy=0;" edge="1" parent="As3NNHCOp14CXFXTtC2F-33" source="As3NNHCOp14CXFXTtC2F-2" target="As3NNHCOp14CXFXTtC2F-3">
          <mxGeometry width="50" height="50" relative="1" as="geometry">
            <mxPoint x="250" y="-10" as="sourcePoint" />
            <mxPoint x="80" y="-20" as="targetPoint" />
          </mxGeometry>
        </mxCell>
        <mxCell id="As3NNHCOp14CXFXTtC2F-8" style="edgeStyle=orthogonalEdgeStyle;rounded=0;orthogonalLoop=1;jettySize=auto;html=1;" edge="1" parent="As3NNHCOp14CXFXTtC2F-33" source="As3NNHCOp14CXFXTtC2F-6" target="As3NNHCOp14CXFXTtC2F-7">
          <mxGeometry relative="1" as="geometry" />
        </mxCell>
        <mxCell id="As3NNHCOp14CXFXTtC2F-6" value="&lt;font style=&quot;vertical-align: inherit;&quot;&gt;&lt;font style=&quot;vertical-align: inherit;&quot;&gt;botón B&lt;/font&gt;&lt;/font&gt;" style="shape=parallelogram;html=1;strokeWidth=2;perimeter=parallelogramPerimeter;whiteSpace=wrap;rounded=1;arcSize=12;size=0.23;" vertex="1" parent="As3NNHCOp14CXFXTtC2F-33">
          <mxGeometry x="12.5" y="130" width="125" height="40" as="geometry" />
        </mxCell>
        <mxCell id="As3NNHCOp14CXFXTtC2F-13" style="edgeStyle=orthogonalEdgeStyle;rounded=0;orthogonalLoop=1;jettySize=auto;html=1;" edge="1" parent="As3NNHCOp14CXFXTtC2F-33" source="As3NNHCOp14CXFXTtC2F-7">
          <mxGeometry relative="1" as="geometry">
            <mxPoint x="140" y="300" as="targetPoint" />
          </mxGeometry>
        </mxCell>
        <mxCell id="As3NNHCOp14CXFXTtC2F-31" style="edgeStyle=orthogonalEdgeStyle;rounded=0;orthogonalLoop=1;jettySize=auto;html=1;" edge="1" parent="As3NNHCOp14CXFXTtC2F-33" source="As3NNHCOp14CXFXTtC2F-7">
          <mxGeometry relative="1" as="geometry">
            <mxPoint x="75" y="110" as="targetPoint" />
            <Array as="points">
              <mxPoint x="1" y="250" />
            </Array>
          </mxGeometry>
        </mxCell>
        <mxCell id="As3NNHCOp14CXFXTtC2F-7" value="&lt;font style=&quot;vertical-align: inherit;&quot;&gt;&lt;font style=&quot;vertical-align: inherit;&quot;&gt;B presionado&lt;/font&gt;&lt;/font&gt;" style="strokeWidth=2;html=1;shape=mxgraph.flowchart.decision;whiteSpace=wrap;" vertex="1" parent="As3NNHCOp14CXFXTtC2F-33">
          <mxGeometry x="32.5" y="210" width="85" height="80" as="geometry" />
        </mxCell>
        <mxCell id="As3NNHCOp14CXFXTtC2F-14" value="&lt;font style=&quot;vertical-align: inherit;&quot;&gt;&lt;font style=&quot;vertical-align: inherit;&quot;&gt;&lt;font style=&quot;vertical-align: inherit;&quot;&gt;&lt;font style=&quot;vertical-align: inherit;&quot;&gt;si&lt;/font&gt;&lt;/font&gt;&lt;/font&gt;&lt;/font&gt;" style="text;html=1;align=center;verticalAlign=middle;resizable=0;points=[];autosize=1;strokeColor=none;fillColor=none;" vertex="1" parent="As3NNHCOp14CXFXTtC2F-33">
          <mxGeometry x="110" y="230" width="30" height="30" as="geometry" />
        </mxCell>
        <mxCell id="As3NNHCOp14CXFXTtC2F-24" style="edgeStyle=orthogonalEdgeStyle;rounded=0;orthogonalLoop=1;jettySize=auto;html=1;entryX=0.5;entryY=0;entryDx=0;entryDy=0;exitX=0;exitY=0.5;exitDx=0;exitDy=0;exitPerimeter=0;" edge="1" parent="As3NNHCOp14CXFXTtC2F-33" source="As3NNHCOp14CXFXTtC2F-16" target="As3NNHCOp14CXFXTtC2F-23">
          <mxGeometry relative="1" as="geometry">
            <Array as="points">
              <mxPoint x="70" y="335" />
            </Array>
          </mxGeometry>
        </mxCell>
        <mxCell id="As3NNHCOp14CXFXTtC2F-16" value="&lt;font style=&quot;vertical-align: inherit;&quot;&gt;&lt;font style=&quot;vertical-align: inherit;&quot;&gt;p = 0&lt;/font&gt;&lt;/font&gt;" style="strokeWidth=2;html=1;shape=mxgraph.flowchart.decision;whiteSpace=wrap;" vertex="1" parent="As3NNHCOp14CXFXTtC2F-33">
          <mxGeometry x="105" y="300" width="70" height="70" as="geometry" />
        </mxCell>
        <mxCell id="As3NNHCOp14CXFXTtC2F-19" value="&lt;font style=&quot;vertical-align: inherit;&quot;&gt;&lt;font style=&quot;vertical-align: inherit;&quot;&gt;&lt;font style=&quot;vertical-align: inherit;&quot;&gt;&lt;font style=&quot;vertical-align: inherit;&quot;&gt;&lt;font style=&quot;vertical-align: inherit;&quot;&gt;&lt;font style=&quot;vertical-align: inherit;&quot;&gt;p = 1&lt;/font&gt;&lt;/font&gt;&lt;/font&gt;&lt;/font&gt;&lt;/font&gt;&lt;/font&gt;" style="rounded=1;whiteSpace=wrap;html=1;absoluteArcSize=1;arcSize=14;strokeWidth=2;" vertex="1" parent="As3NNHCOp14CXFXTtC2F-33">
          <mxGeometry x="160" y="370" width="85" height="30" as="geometry" />
        </mxCell>
        <mxCell id="As3NNHCOp14CXFXTtC2F-22" style="edgeStyle=orthogonalEdgeStyle;rounded=0;orthogonalLoop=1;jettySize=auto;html=1;exitX=1;exitY=0.5;exitDx=0;exitDy=0;exitPerimeter=0;entryX=0.5;entryY=0;entryDx=0;entryDy=0;" edge="1" parent="As3NNHCOp14CXFXTtC2F-33" source="As3NNHCOp14CXFXTtC2F-16" target="As3NNHCOp14CXFXTtC2F-19">
          <mxGeometry relative="1" as="geometry">
            <mxPoint x="200" y="360" as="targetPoint" />
          </mxGeometry>
        </mxCell>
        <mxCell id="As3NNHCOp14CXFXTtC2F-23" value="&lt;font style=&quot;vertical-align: inherit;&quot;&gt;&lt;font style=&quot;vertical-align: inherit;&quot;&gt;p = 0&lt;/font&gt;&lt;/font&gt;" style="rounded=1;whiteSpace=wrap;html=1;absoluteArcSize=1;arcSize=14;strokeWidth=2;" vertex="1" parent="As3NNHCOp14CXFXTtC2F-33">
          <mxGeometry x="32.5" y="370" width="75" height="30" as="geometry" />
        </mxCell>
        <mxCell id="As3NNHCOp14CXFXTtC2F-25" value="&lt;font style=&quot;vertical-align: inherit;&quot;&gt;&lt;font style=&quot;vertical-align: inherit;&quot;&gt;si&lt;/font&gt;&lt;/font&gt;" style="text;html=1;align=center;verticalAlign=middle;resizable=0;points=[];autosize=1;strokeColor=none;fillColor=none;" vertex="1" parent="As3NNHCOp14CXFXTtC2F-33">
          <mxGeometry x="175" y="308" width="30" height="30" as="geometry" />
        </mxCell>
        <mxCell id="As3NNHCOp14CXFXTtC2F-26" value="&lt;font style=&quot;vertical-align: inherit;&quot;&gt;&lt;font style=&quot;vertical-align: inherit;&quot;&gt;non&lt;/font&gt;&lt;/font&gt;" style="text;html=1;align=center;verticalAlign=middle;resizable=0;points=[];autosize=1;strokeColor=none;fillColor=none;" vertex="1" parent="As3NNHCOp14CXFXTtC2F-33">
          <mxGeometry x="70" y="308" width="40" height="30" as="geometry" />
        </mxCell>
        <mxCell id="As3NNHCOp14CXFXTtC2F-27" value="" style="endArrow=none;html=1;rounded=0;" edge="1" parent="As3NNHCOp14CXFXTtC2F-33">
          <mxGeometry width="50" height="50" relative="1" as="geometry">
            <mxPoint x="70" y="430" as="sourcePoint" />
            <mxPoint x="70" y="400" as="targetPoint" />
          </mxGeometry>
        </mxCell>
        <mxCell id="As3NNHCOp14CXFXTtC2F-28" value="" style="endArrow=none;html=1;rounded=0;" edge="1" parent="As3NNHCOp14CXFXTtC2F-33">
          <mxGeometry width="50" height="50" relative="1" as="geometry">
            <mxPoint x="210" y="430" as="sourcePoint" />
            <mxPoint x="210" y="400" as="targetPoint" />
          </mxGeometry>
        </mxCell>
        <mxCell id="As3NNHCOp14CXFXTtC2F-29" value="" style="endArrow=none;html=1;rounded=0;" edge="1" parent="As3NNHCOp14CXFXTtC2F-33">
          <mxGeometry width="50" height="50" relative="1" as="geometry">
            <mxPoint x="70" y="430" as="sourcePoint" />
            <mxPoint x="210" y="430" as="targetPoint" />
          </mxGeometry>
        </mxCell>
        <mxCell id="As3NNHCOp14CXFXTtC2F-30" value="" style="endArrow=classic;html=1;rounded=0;" edge="1" parent="As3NNHCOp14CXFXTtC2F-33">
          <mxGeometry width="50" height="50" relative="1" as="geometry">
            <mxPoint x="128" y="430" as="sourcePoint" />
            <mxPoint x="70" y="190" as="targetPoint" />
            <Array as="points">
              <mxPoint x="128" y="490" />
              <mxPoint x="250" y="490" />
              <mxPoint x="250" y="190" />
            </Array>
          </mxGeometry>
        </mxCell>
        <mxCell id="As3NNHCOp14CXFXTtC2F-32" value="&lt;font style=&quot;vertical-align: inherit;&quot;&gt;&lt;font style=&quot;vertical-align: inherit;&quot;&gt;non&lt;/font&gt;&lt;/font&gt;" style="text;html=1;align=center;verticalAlign=middle;resizable=0;points=[];autosize=1;strokeColor=none;fillColor=none;" vertex="1" parent="As3NNHCOp14CXFXTtC2F-33">
          <mxGeometry y="230" width="40" height="30" as="geometry" />
        </mxCell>
        <mxCell id="W4NPOgVsrDa2YRoiuGQa-5" value="&lt;font style=&quot;vertical-align: inherit;&quot;&gt;&lt;font style=&quot;vertical-align: inherit;&quot;&gt;b = 0&lt;/font&gt;&lt;/font&gt;" style="rounded=1;whiteSpace=wrap;html=1;absoluteArcSize=1;arcSize=14;strokeWidth=2;" parent="WIyWlLk6GJQsqaUBKTNV-1" vertex="1">
          <mxGeometry x="1340" y="240" width="120" height="30" as="geometry" />
        </mxCell>
        <mxCell id="As3NNHCOp14CXFXTtC2F-34" value="" style="group" vertex="1" connectable="0" parent="WIyWlLk6GJQsqaUBKTNV-1">
          <mxGeometry x="1314" y="670" width="340" height="332" as="geometry" />
        </mxCell>
        <mxCell id="W4NPOgVsrDa2YRoiuGQa-12" value="" style="group" parent="As3NNHCOp14CXFXTtC2F-34" vertex="1" connectable="0">
          <mxGeometry width="270" height="332" as="geometry" />
        </mxCell>
        <mxCell id="W4NPOgVsrDa2YRoiuGQa-24" style="edgeStyle=orthogonalEdgeStyle;rounded=0;orthogonalLoop=1;jettySize=auto;html=1;exitX=0.5;exitY=1;exitDx=0;exitDy=0;" parent="W4NPOgVsrDa2YRoiuGQa-12" source="W4NPOgVsrDa2YRoiuGQa-6" edge="1">
          <mxGeometry relative="1" as="geometry">
            <mxPoint x="130" y="130" as="targetPoint" />
          </mxGeometry>
        </mxCell>
        <mxCell id="W4NPOgVsrDa2YRoiuGQa-6" value="PIR" style="shape=parallelogram;html=1;strokeWidth=2;perimeter=parallelogramPerimeter;whiteSpace=wrap;rounded=1;arcSize=12;size=0.23;" parent="W4NPOgVsrDa2YRoiuGQa-12" vertex="1">
          <mxGeometry x="75" y="60" width="110" height="40" as="geometry" />
        </mxCell>
        <mxCell id="W4NPOgVsrDa2YRoiuGQa-7" value="Presenza?" style="strokeWidth=2;html=1;shape=mxgraph.flowchart.decision;whiteSpace=wrap;" parent="W4NPOgVsrDa2YRoiuGQa-12" vertex="1">
          <mxGeometry x="85" y="130" width="90" height="88" as="geometry" />
        </mxCell>
        <mxCell id="W4NPOgVsrDa2YRoiuGQa-26" style="edgeStyle=orthogonalEdgeStyle;rounded=0;orthogonalLoop=1;jettySize=auto;html=1;exitX=0;exitY=0.5;exitDx=0;exitDy=0;exitPerimeter=0;" parent="W4NPOgVsrDa2YRoiuGQa-12" source="W4NPOgVsrDa2YRoiuGQa-8" edge="1">
          <mxGeometry relative="1" as="geometry">
            <mxPoint x="130" y="30" as="targetPoint" />
            <Array as="points">
              <mxPoint y="30" />
              <mxPoint x="121" y="30" />
            </Array>
          </mxGeometry>
        </mxCell>
        <mxCell id="W4NPOgVsrDa2YRoiuGQa-8" value="Mostrar casa" style="strokeWidth=2;html=1;shape=mxgraph.flowchart.display;whiteSpace=wrap;" parent="W4NPOgVsrDa2YRoiuGQa-12" vertex="1">
          <mxGeometry y="210" width="85" height="50" as="geometry" />
        </mxCell>
        <mxCell id="W4NPOgVsrDa2YRoiuGQa-10" style="edgeStyle=orthogonalEdgeStyle;rounded=0;orthogonalLoop=1;jettySize=auto;html=1;exitX=0;exitY=0.5;exitDx=0;exitDy=0;exitPerimeter=0;entryX=0.5;entryY=0;entryDx=0;entryDy=0;entryPerimeter=0;" parent="W4NPOgVsrDa2YRoiuGQa-12" source="W4NPOgVsrDa2YRoiuGQa-7" target="W4NPOgVsrDa2YRoiuGQa-8" edge="1">
          <mxGeometry relative="1" as="geometry" />
        </mxCell>
        <mxCell id="W4NPOgVsrDa2YRoiuGQa-11" value="Non" style="text;html=1;align=center;verticalAlign=middle;resizable=0;points=[];autosize=1;strokeColor=none;fillColor=none;" parent="W4NPOgVsrDa2YRoiuGQa-12" vertex="1">
          <mxGeometry x="35" y="148" width="50" height="30" as="geometry" />
        </mxCell>
        <mxCell id="W4NPOgVsrDa2YRoiuGQa-13" value="C &amp;lt; 5" style="strokeWidth=2;html=1;shape=mxgraph.flowchart.decision;whiteSpace=wrap;" parent="W4NPOgVsrDa2YRoiuGQa-12" vertex="1">
          <mxGeometry x="170" y="232" width="80" height="68" as="geometry" />
        </mxCell>
        <mxCell id="W4NPOgVsrDa2YRoiuGQa-14" style="edgeStyle=orthogonalEdgeStyle;rounded=0;orthogonalLoop=1;jettySize=auto;html=1;exitX=1;exitY=0.5;exitDx=0;exitDy=0;exitPerimeter=0;entryX=0.5;entryY=0;entryDx=0;entryDy=0;entryPerimeter=0;" parent="W4NPOgVsrDa2YRoiuGQa-12" source="W4NPOgVsrDa2YRoiuGQa-7" target="W4NPOgVsrDa2YRoiuGQa-13" edge="1">
          <mxGeometry relative="1" as="geometry" />
        </mxCell>
        <mxCell id="W4NPOgVsrDa2YRoiuGQa-27" value="SI" style="edgeLabel;html=1;align=center;verticalAlign=middle;resizable=0;points=[];" parent="W4NPOgVsrDa2YRoiuGQa-14" vertex="1" connectable="0">
          <mxGeometry x="-0.6559" y="4" relative="1" as="geometry">
            <mxPoint as="offset" />
          </mxGeometry>
        </mxCell>
        <mxCell id="W4NPOgVsrDa2YRoiuGQa-25" value="" style="endArrow=classic;html=1;rounded=0;" parent="W4NPOgVsrDa2YRoiuGQa-12" edge="1">
          <mxGeometry width="50" height="50" relative="1" as="geometry">
            <mxPoint x="170" y="270" as="sourcePoint" />
            <mxPoint x="130" y="-10" as="targetPoint" />
            <Array as="points">
              <mxPoint x="150" y="270" />
              <mxPoint x="150" y="320" />
              <mxPoint x="-80" y="320" />
              <mxPoint x="-80" y="-10" />
            </Array>
          </mxGeometry>
        </mxCell>
        <mxCell id="W4NPOgVsrDa2YRoiuGQa-30" value="" style="endArrow=classic;html=1;rounded=0;" parent="W4NPOgVsrDa2YRoiuGQa-12" edge="1">
          <mxGeometry width="50" height="50" relative="1" as="geometry">
            <mxPoint x="210" y="180" as="sourcePoint" />
            <mxPoint x="290" y="180" as="targetPoint" />
          </mxGeometry>
        </mxCell>
        <mxCell id="W4NPOgVsrDa2YRoiuGQa-28" value="non" style="text;html=1;align=center;verticalAlign=middle;resizable=0;points=[];autosize=1;strokeColor=none;fillColor=none;" parent="As3NNHCOp14CXFXTtC2F-34" vertex="1">
          <mxGeometry x="140" y="238" width="40" height="30" as="geometry" />
        </mxCell>
        <mxCell id="W4NPOgVsrDa2YRoiuGQa-31" value="" style="shape=parallelogram;html=1;strokeWidth=2;perimeter=parallelogramPerimeter;whiteSpace=wrap;rounded=1;arcSize=12;size=0.23;" parent="As3NNHCOp14CXFXTtC2F-34" vertex="1">
          <mxGeometry x="250" y="190" width="90" height="30" as="geometry" />
        </mxCell>
        <mxCell id="As3NNHCOp14CXFXTtC2F-35" value="" style="endArrow=classic;html=1;rounded=0;entryX=0.5;entryY=0;entryDx=0;entryDy=0;" edge="1" parent="WIyWlLk6GJQsqaUBKTNV-1" target="W4NPOgVsrDa2YRoiuGQa-5">
          <mxGeometry width="50" height="50" relative="1" as="geometry">
            <mxPoint x="1400" y="200" as="sourcePoint" />
            <mxPoint x="1450" y="150" as="targetPoint" />
          </mxGeometry>
        </mxCell>
        <mxCell id="As3NNHCOp14CXFXTtC2F-36" value="" style="endArrow=classic;html=1;rounded=0;entryX=0.5;entryY=0;entryDx=0;entryDy=0;exitX=0.5;exitY=1;exitDx=0;exitDy=0;" edge="1" target="As3NNHCOp14CXFXTtC2F-37" parent="WIyWlLk6GJQsqaUBKTNV-1" source="W4NPOgVsrDa2YRoiuGQa-5">
          <mxGeometry width="50" height="50" relative="1" as="geometry">
            <mxPoint x="1400" y="280" as="sourcePoint" />
            <mxPoint x="1450" y="210" as="targetPoint" />
          </mxGeometry>
        </mxCell>
        <mxCell id="As3NNHCOp14CXFXTtC2F-40" style="edgeStyle=orthogonalEdgeStyle;rounded=0;orthogonalLoop=1;jettySize=auto;html=1;" edge="1" parent="WIyWlLk6GJQsqaUBKTNV-1" source="As3NNHCOp14CXFXTtC2F-37" target="As3NNHCOp14CXFXTtC2F-38">
          <mxGeometry relative="1" as="geometry" />
        </mxCell>
        <mxCell id="As3NNHCOp14CXFXTtC2F-37" value="&lt;font style=&quot;vertical-align: inherit;&quot;&gt;&lt;font style=&quot;vertical-align: inherit;&quot;&gt;PAGIR&lt;/font&gt;&lt;/font&gt;" style="rounded=1;whiteSpace=wrap;html=1;absoluteArcSize=1;arcSize=14;strokeWidth=2;" vertex="1" parent="WIyWlLk6GJQsqaUBKTNV-1">
          <mxGeometry x="1340" y="300" width="120" height="30" as="geometry" />
        </mxCell>
        <mxCell id="As3NNHCOp14CXFXTtC2F-41" style="edgeStyle=orthogonalEdgeStyle;rounded=0;orthogonalLoop=1;jettySize=auto;html=1;exitX=0;exitY=0.5;exitDx=0;exitDy=0;exitPerimeter=0;" edge="1" parent="WIyWlLk6GJQsqaUBKTNV-1" source="As3NNHCOp14CXFXTtC2F-38">
          <mxGeometry relative="1" as="geometry">
            <mxPoint x="1390" y="340" as="targetPoint" />
            <Array as="points">
              <mxPoint x="1300" y="410" />
              <mxPoint x="1300" y="350" />
              <mxPoint x="1391" y="350" />
            </Array>
          </mxGeometry>
        </mxCell>
        <mxCell id="As3NNHCOp14CXFXTtC2F-42" value="Text" style="edgeLabel;html=1;align=center;verticalAlign=middle;resizable=0;points=[];" vertex="1" connectable="0" parent="As3NNHCOp14CXFXTtC2F-41">
          <mxGeometry x="0.9236" relative="1" as="geometry">
            <mxPoint as="offset" />
          </mxGeometry>
        </mxCell>
        <mxCell id="As3NNHCOp14CXFXTtC2F-44" style="edgeStyle=orthogonalEdgeStyle;rounded=0;orthogonalLoop=1;jettySize=auto;html=1;exitX=1;exitY=0.5;exitDx=0;exitDy=0;exitPerimeter=0;entryX=0.5;entryY=0;entryDx=0;entryDy=0;entryPerimeter=0;" edge="1" parent="WIyWlLk6GJQsqaUBKTNV-1" source="As3NNHCOp14CXFXTtC2F-38" target="As3NNHCOp14CXFXTtC2F-46">
          <mxGeometry relative="1" as="geometry">
            <mxPoint x="1470" y="440" as="targetPoint" />
          </mxGeometry>
        </mxCell>
        <mxCell id="As3NNHCOp14CXFXTtC2F-38" value="&lt;font style=&quot;vertical-align: inherit;&quot;&gt;&lt;font style=&quot;vertical-align: inherit;&quot;&gt;PIR= 1&lt;/font&gt;&lt;/font&gt;" style="strokeWidth=2;html=1;shape=mxgraph.flowchart.decision;whiteSpace=wrap;" vertex="1" parent="WIyWlLk6GJQsqaUBKTNV-1">
          <mxGeometry x="1350" y="360" width="100" height="100" as="geometry" />
        </mxCell>
        <mxCell id="As3NNHCOp14CXFXTtC2F-49" style="edgeStyle=orthogonalEdgeStyle;rounded=0;orthogonalLoop=1;jettySize=auto;html=1;" edge="1" parent="WIyWlLk6GJQsqaUBKTNV-1" source="As3NNHCOp14CXFXTtC2F-46">
          <mxGeometry relative="1" as="geometry">
            <mxPoint x="1550" y="550" as="targetPoint" />
          </mxGeometry>
        </mxCell>
        <mxCell id="As3NNHCOp14CXFXTtC2F-46" value="&lt;font style=&quot;vertical-align: inherit;&quot;&gt;&lt;font style=&quot;vertical-align: inherit;&quot;&gt;b &amp;lt; 5&lt;/font&gt;&lt;/font&gt;" style="strokeWidth=2;html=1;shape=mxgraph.flowchart.decision;whiteSpace=wrap;" vertex="1" parent="WIyWlLk6GJQsqaUBKTNV-1">
          <mxGeometry x="1430" y="460" width="80" height="80" as="geometry" />
        </mxCell>
        <mxCell id="As3NNHCOp14CXFXTtC2F-47" value="" style="endArrow=classic;html=1;rounded=0;entryX=0.615;entryY=0.08;entryDx=0;entryDy=0;entryPerimeter=0;" edge="1" parent="WIyWlLk6GJQsqaUBKTNV-1" target="As3NNHCOp14CXFXTtC2F-48">
          <mxGeometry width="50" height="50" relative="1" as="geometry">
            <mxPoint x="1470" y="410" as="sourcePoint" />
            <mxPoint x="1560" y="410" as="targetPoint" />
            <Array as="points">
              <mxPoint x="1600" y="410" />
            </Array>
          </mxGeometry>
        </mxCell>
        <mxCell id="As3NNHCOp14CXFXTtC2F-48" value="&lt;font style=&quot;vertical-align: inherit;&quot;&gt;&lt;font style=&quot;vertical-align: inherit;&quot;&gt;&lt;font style=&quot;vertical-align: inherit;&quot;&gt;&lt;font style=&quot;vertical-align: inherit;&quot;&gt;&lt;font style=&quot;vertical-align: inherit;&quot;&gt;&lt;font style=&quot;vertical-align: inherit;&quot;&gt;&lt;font style=&quot;vertical-align: inherit;&quot;&gt;&lt;font style=&quot;vertical-align: inherit;&quot;&gt;suena el tono de llamada 2 veces&lt;/font&gt;&lt;/font&gt;&lt;/font&gt;&lt;/font&gt;&lt;/font&gt;&lt;/font&gt;&lt;/font&gt;&lt;/font&gt;" style="shape=parallelogram;html=1;strokeWidth=2;perimeter=parallelogramPerimeter;whiteSpace=wrap;rounded=1;arcSize=12;size=0.23;" vertex="1" parent="WIyWlLk6GJQsqaUBKTNV-1">
          <mxGeometry x="1524" y="430" width="130" height="50" as="geometry" />
        </mxCell>
        <mxCell id="As3NNHCOp14CXFXTtC2F-50" value="&lt;font style=&quot;vertical-align: inherit;&quot;&gt;&lt;font style=&quot;vertical-align: inherit;&quot;&gt;p = 1&lt;/font&gt;&lt;/font&gt;" style="rounded=1;whiteSpace=wrap;html=1;absoluteArcSize=1;arcSize=14;strokeWidth=2;" vertex="1" parent="WIyWlLk6GJQsqaUBKTNV-1">
          <mxGeometry x="1510" y="555" width="80" height="25" as="geometry" />
        </mxCell>
      </root>
    </mxGraphModel>
  </diagram>
</mxfile>
